# xmcd
#
# Track frame offsets:
#	150
#	14523
#	29157
#	49861
#	63650
#	82117
#	96477
#	110893
#
# Disc length: 1668 seconds
#
# Revision: 0
# Processed by: cddbd v1.5.2PL0 Copyright (c) Steve Scherf et al.
# Submitted via: audiograbber 1.83.01
#
DISCID=79068208
DTITLE=Becker, Markus feat. Mallorca Boys - Das rote Pferd (Maxi)
DYEAR=2007
DGENRE=Schlager
TTITLE0=Das rote Pferd
TTITLE1=Ballermann am Balkon
TTITLE2=Zehn kleine Jägermeister
TTITLE3=Das rote Pferd (Kids Remix)
TTITLE4=Das rote Pferd (Extended Version)
TTITLE5=Das rote Pferd (Holiday Version)
TTITLE6=Das rote Pferd (Karaoke Version)
TTITLE7=Das rote Pferd (Mallorca Cowboys and Friends Version)
EXTD=
EXTT0=
EXTT1=
EXTT2=
EXTT3=
EXTT4=
EXTT5=
EXTT6=
EXTT7=
PLAYORDER=
